<?xml version="1.0" encoding="utf-8" ?><svg xmlns="http://www.w3.org/2000/svg" xmlns:xlink="http://www.w3.org/1999/xlink" width="1024" height="1024" viewBox="0 0 1024 1024"><path d="M0 0L1024 0L1024 1024L1003.42 1024L998.889 1024L943.892 1024L939.321 1024L916.366 1024L911.675 1024L889.651 1024L885.822 1024L836.422 1024L532.196 1024L526.525 1024L476.478 1024L471.28 1024L452.279 1024L449.617 1024L429.287 1024L424.881 1024L416.154 1024L413.407 1024L0 1024L0 0Z"/><path fill="#444449" d="M476.478 1024C477.823 1019.62 478.991 1011.69 480.589 1007.86C482.129 1004.18 488.383 996.384 491.008 992.788L509.957 966.724C517.877 955.847 528.935 941.816 538.549 932.26C572.374 898.848 616.018 875.231 663.118 867.614C682.153 864.535 690.795 864.816 709.258 869.586C738.403 877.115 762.258 886.244 786.659 904.092C789.321 913.343 801.036 931.11 805.434 940.721C815.357 962.408 824.036 984.306 831.11 1007.11C832.755 1012.41 835.063 1018.8 836.422 1024L532.196 1024L526.525 1024L476.478 1024Z"/><path d="M526.525 1024C532.769 1014.51 538.083 1004.65 544.217 995.158C557.47 974.852 571.997 955.407 587.713 936.941C591.514 932.552 600.809 922.071 605.305 918.717C599.822 926.192 593.712 933.413 587.988 940.74C580.883 949.986 573.922 959.341 567.108 968.803C553.901 987.196 543.599 1004.55 532.196 1024L526.525 1024Z"/><path fill="#444449" d="M759.388 738.037C781.795 730.298 804.73 723.121 828.136 719.064C848.464 732.343 871.885 761.181 886.649 780.423C939.868 849.779 977.703 920.112 995.686 1006.28C996.912 1012.16 997.98 1018.07 998.889 1024L943.892 1024C931.825 994.19 916.976 962.901 900.525 935.302C894.943 925.939 887.384 915.629 881.049 906.609C894.459 900.707 909.521 886.917 911.732 871.761C914.885 850.146 894.603 828.743 880.307 814.948C849.367 785.093 810.503 769.382 768.645 762.282C770.075 758.758 770.685 753.556 770.933 749.776C767.322 742.744 766.319 742.169 759.388 738.037Z"/><path fill="#2D2C31" d="M706.733 866.071C746.072 865.448 779.871 882.339 815.997 894.7C843.751 904.198 840.688 900.636 857.755 925.125C879.571 956.428 897.916 988.292 911.675 1024L889.651 1024C870.226 983.42 827.416 929.211 791.347 901.958C779.713 893.168 753.778 880.189 739.533 875.322C730.37 872.191 716.262 868.225 706.733 866.071Z"/><path fill="#2D2C31" d="M786.659 904.092C796.431 909.179 806.457 919.036 814.204 926.807C842.896 955.361 867.048 988.138 885.822 1024L836.422 1024C835.063 1018.8 832.755 1012.41 831.11 1007.11C824.036 984.306 815.357 962.408 805.434 940.721C801.036 931.11 789.321 913.343 786.659 904.092Z"/><path fill="#444449" d="M847.73 905.151C858.078 907.807 866.691 910.229 877.443 908.273C902.591 944.255 923.363 983.104 939.321 1024L916.366 1024C911.108 1012.13 905.595 998.838 899.897 987.294C885.272 958.253 867.797 930.736 847.73 905.151Z"/><path fill="#6C6E65" d="M759.388 738.037C766.319 742.169 767.322 742.744 770.933 749.776C770.685 753.556 770.075 758.758 768.645 762.282C736.928 758.058 709.927 763.095 679.485 770.388C705.543 758.234 732.213 747.436 759.388 738.037Z"/><path fill="#444449" d="M416.154 1024C422.069 1008.95 429.891 993.882 437.671 979.748C439.253 976.875 442.833 967.803 444.914 966.439C448.324 969.754 443.512 976.394 442.222 980.584C439.66 988.903 435.018 996.448 431.713 1004.51C429.129 1010.89 426.85 1017.4 424.881 1024L416.154 1024Z"/><path fill="#6C6E65" d="M440.178 995.442C440.613 1000.47 441.049 1004.05 443.985 1008.52C446.074 1011.7 449.618 1013.56 451.137 1016.91C450.903 1016.39 449.644 1023.45 449.617 1024L429.287 1024C432.735 1013.72 436.029 1005.45 440.178 995.442Z"/><path fill="#6C6E65" d="M455.268 1017.6C463.874 1017.6 468.342 1015.98 475.44 1011.06C474.24 1015.61 473.895 1020.77 471.28 1024L452.279 1024L455.268 1017.6Z"/><defs><linearGradient id="gradient_0" gradientUnits="userSpaceOnUse" x1="585.86914" y1="538.51025" x2="318.49847" y2="32.149685"><stop offset="0" stop-color="#BEBCBC"/><stop offset="1" stop-color="#F5F6F3"/></linearGradient></defs><path fill="url(#gradient_0)" d="M393.798 52.7501C397.378 50.3617 408.14 46.4791 412.561 44.7934C380.59 68.4429 342.193 123.337 326.728 159.758C302.795 176.824 286.051 191.245 264.693 211.589C263.325 214.009 259.327 217.472 257.663 220.308C274.864 204.799 290.666 190.128 309.629 176.313C388.008 119.212 479.614 83.3832 575.083 67.5782C594.471 64.3686 616.318 62.1255 635.865 60.4802C661.092 59.1142 684.948 58.318 710.25 59.7289C704.787 61.2774 699.313 62.7869 693.828 64.2576C687.676 66.5729 681.413 68.6186 675.244 70.8898C633.218 86.3617 592.87 107.316 555.323 131.648C545.189 138.14 535.287 144.987 525.635 152.176C519.176 157.08 510.751 164.516 504.051 168.438C501.019 170.212 490.134 173.835 486.225 175.224C476.498 178.623 466.842 182.222 457.263 186.019C435.001 194.911 410.166 207.968 389.07 219.857L385.518 222.444L385.996 223.549C477.661 173.291 580.222 146.2 684.749 144.636C698.365 144.358 711.985 144.477 725.594 144.993C730.159 145.163 738.255 145.263 742.538 145.965C747.926 146.092 753.616 146.666 759.011 147.113C766.262 147.571 777.565 148.114 784.626 149.352C778.016 150.778 772.058 152.419 765.621 154.503C722.438 168.48 681.41 186.448 644.016 212.478C623.471 213.195 601.731 215.667 581.512 219.28C571.76 221.023 562.149 223.887 552.828 225.635C549.732 226.968 546.083 228.437 543.103 229.903C613.336 211.292 676.343 214.751 747.655 220.883C779.525 223.623 827.6 226.647 859.24 223.428C830.4 240.162 741.921 290.549 710.929 285.976C752.699 305.877 823.756 330.604 869.931 332.124C809.409 358.725 752.597 377.433 686.068 382.267C700.031 387.048 714.431 390.025 728.487 395.273C752.581 404.27 778.647 416.034 801.592 427.63C754.226 420.157 710.464 419.853 662.526 423.136C659.627 421.316 658.159 420.5 655.054 419.072C650.735 407.542 631.3 399.307 620.161 396.269C615.265 389.605 609.268 383.23 603.974 376.802C587.601 356.921 570.386 337.311 549.809 321.639C537.465 312.237 523.176 301.818 508.578 296.419C516.126 302.328 524.735 307.864 532.537 313.634C546.934 324.141 560.528 335.705 573.206 348.232C575.499 350.507 582.674 357.709 584.15 360.011C590.082 365.994 606.905 385.549 611.491 392.248C602.442 388.447 590.618 380.896 581.438 376.098C577.576 374.73 568.193 370.221 564.322 368.291C560.316 366.9 554.611 364.298 550.482 362.648C543.846 360.026 537.129 357.614 530.341 355.416C485.722 340.656 438.798 331.293 392.095 327.05C389.114 326.779 374.805 325.559 372.659 324.557C359.046 318.209 347.058 310.134 332.907 304.409L331.316 303.994C331.619 305.085 349.531 315.072 351.752 316.415C374.887 330.115 396.339 346.477 415.668 365.166C418.763 368.131 426.39 375.496 428.84 378.818C432.291 381.951 437.742 388.263 440.967 391.862L427.4 385.231C416.837 382.455 402.344 375 391.008 371.391C342.268 355.871 283.437 338.981 232.053 343.967C239.176 344.88 246.57 345.395 253.591 346.445C260.422 346.802 267.082 347.966 273.83 348.302C266.676 349.998 259.514 351.656 252.344 353.278C212.4 363.885 181.188 376.587 150.671 405.641C145.88 410.135 141.365 414.914 137.15 419.952C135.558 421.852 130.199 429.183 128.849 430.222C126.132 434.367 123.349 438.469 120.502 442.526C117.759 441.133 109.994 436.824 108.378 434.358C99.2682 428.244 89.2663 413.976 82.4935 405.089C56.4945 370.975 47.3839 334.424 43.1096 292.511C44.4936 292.39 49.1371 289.137 49.9011 288.045C69.9363 325.573 87.9125 344.317 119.055 372.022C108.99 344.922 104.115 316.17 104.684 287.268C105.904 234.979 127.664 178.579 158.305 136.862C166.974 125.059 174.118 114.845 184.899 104.547C188.18 99.9053 198.175 90.4239 202.434 86.2306C199.242 92.3352 196.573 97.5987 193.863 103.917C192.687 106.66 189.184 115.551 187.889 117.638L187.709 118.609C186.856 123.009 184.573 129.309 183.21 133.737C173.953 163.802 170.668 197.613 171.722 228.975C160.041 249.808 151.247 266.685 143.117 289.475L140.055 299.766C141.208 298.004 143.64 292.212 144.646 289.998C147.415 283.948 150.239 277.924 153.116 271.926C202.669 168.594 280.515 108.593 380.75 58.7284C384.982 56.4887 389.339 54.4927 393.798 52.7501Z"/><path fill="#BCBABA" d="M635.865 60.4802C661.092 59.1142 684.948 58.318 710.25 59.7289C704.787 61.2774 699.313 62.7869 693.828 64.2576C687.676 66.5729 681.413 68.6186 675.244 70.8898C633.218 86.3617 592.87 107.316 555.323 131.648C545.189 138.14 535.287 144.987 525.635 152.176C519.176 157.08 510.751 164.516 504.051 168.438C501.019 170.212 490.134 173.835 486.225 175.224C476.498 178.623 466.842 182.222 457.263 186.019C435.001 194.911 410.166 207.968 389.07 219.857C390.041 216.952 396.443 211.149 398.928 208.801C449.209 161.291 505.913 120.733 570.83 95.8C581.369 91.7522 591.826 87.4346 602.399 83.4703C609.363 80.8559 616.773 78.9791 623.662 76.2356L623.85 75.0986C626.416 73.4228 630.099 71.5241 632.467 69.6638C637.356 65.8213 637.681 67.271 643.266 66.6865L644.114 66.604L644.206 65.8044C641.914 63.8248 639.309 65.6572 635.666 62.8489L635.865 60.4802Z"/><path fill="#FEFEFE" d="M635.865 60.4802C661.092 59.1142 684.948 58.318 710.25 59.7289C704.787 61.2774 699.313 62.7869 693.828 64.2576L693.283 63.7384C696.183 62.5165 699.102 61.7799 702.128 60.9181L701.984 60.2805C700.25 60.061 678.967 60.0284 678.124 60.328L677.651 61.2876L678.011 62.0472C680.318 61.861 684.66 61.1732 686.608 61.6368L686.705 62.1426C664.403 63.8607 644.815 71.2829 623.662 76.2356L623.85 75.0986C626.416 73.4228 630.099 71.5241 632.467 69.6638C637.356 65.8213 637.681 67.271 643.266 66.6865L644.114 66.604L644.206 65.8044C641.914 63.8248 639.309 65.6572 635.666 62.8489L635.865 60.4802Z"/><path fill="#BCBABA" d="M759.011 147.113C766.262 147.571 777.565 148.114 784.626 149.352C778.016 150.778 772.058 152.419 765.621 154.503C722.438 168.48 681.41 186.448 644.016 212.478C623.471 213.195 601.731 215.667 581.512 219.28C571.76 221.023 562.149 223.887 552.828 225.635C555.454 223.221 577.547 211.385 582.281 208.93C613.478 192.75 648.01 176.558 681.936 167.281C696.904 163.187 712.688 160.157 727.725 156.043C732.674 154.688 739.572 153.567 744.123 152.021L745.084 151.687C748.088 151.162 757.936 150.136 759.011 147.113Z"/><path fill="#BCBABA" d="M393.798 52.7501C397.378 50.3617 408.14 46.4791 412.561 44.7934C380.59 68.4429 342.193 123.337 326.728 159.758C302.795 176.824 286.051 191.245 264.693 211.589C265.222 203.435 301.955 152.191 309.512 142.42C317.587 131.801 326.132 121.547 335.124 111.692C346.355 99.5279 358.873 88.0333 370.737 76.4816C373.068 74.2124 375.697 71.9586 377.901 69.5903L378.559 68.8768C379.617 65.7569 383.718 64.4856 383.213 60.6522C382.127 58.8641 382.871 59.541 380.75 58.7284C384.982 56.4887 389.339 54.4927 393.798 52.7501Z"/><path fill="#FEFEFE" d="M380.75 58.7284C384.982 56.4887 389.339 54.4927 393.798 52.7501C393.911 55.6088 381.353 66.656 378.559 68.8768C379.617 65.7569 383.718 64.4856 383.213 60.6522C382.127 58.8641 382.871 59.541 380.75 58.7284Z"/><path fill="#BCBABA" d="M187.889 117.638L187.709 118.609C186.856 123.009 184.573 129.309 183.21 133.737C173.953 163.802 170.668 197.613 171.722 228.975C160.041 249.808 151.247 266.685 143.117 289.475C141.217 286.263 142.092 275.852 142.217 271.758C143.711 222.952 150.937 170.737 178.807 129.35C180.752 126.461 185.36 119.422 187.889 117.638Z"/><path fill="#BCBABA" d="M332.907 304.409C338.125 303.15 356.7 306.193 363.225 306.877C432.377 314.124 501.192 332.725 562.971 364.985C565.796 366.46 569.838 369.788 572.578 370.782C569.715 370.875 566.279 367 564.322 368.291C560.316 366.9 554.611 364.298 550.482 362.648C543.846 360.026 537.129 357.614 530.341 355.416C485.722 340.656 438.798 331.293 392.095 327.05C389.114 326.779 374.805 325.559 372.659 324.557C359.046 318.209 347.058 310.134 332.907 304.409Z"/><path fill="#FEFEFE" d="M584.15 360.011C590.082 365.994 606.905 385.549 611.491 392.248C602.442 388.447 590.618 380.896 581.438 376.098L581.477 375.573C582.679 375.656 582.668 375.748 583.782 376.239L584.763 375.677C588.204 369.616 591.175 367.409 585.822 363.147C584.448 362.053 584.369 361.66 584.15 360.011Z"/><path fill="#FEFEFE" d="M253.591 346.445C260.422 346.802 267.082 347.966 273.83 348.302C266.676 349.998 259.514 351.656 252.344 353.278L251.714 352.787C253.637 347.608 253.201 349.69 250.298 346.78L251.518 346.363C252.446 346.691 252.607 346.537 253.591 346.445Z"/><path fill="#FEFEFE" d="M184.899 104.547C188.18 99.9053 198.175 90.4239 202.434 86.2306C199.242 92.3352 196.573 97.5987 193.863 103.917C192.687 106.66 189.184 115.551 187.889 117.638C187.199 112.474 193.068 106.796 193.084 102.14C192.241 100.429 192.866 101.067 191.079 100.224C188.982 100.474 187.853 102.58 185.742 104.603L184.899 104.547Z"/><path fill="#FEFEFE" d="M742.538 145.965C747.926 146.092 753.616 146.666 759.011 147.113C757.936 150.136 748.088 151.162 745.084 151.687L744.911 151.138C746.345 150.909 747.499 150.899 748.625 150.034C748.9 148.836 748.767 148.99 749.45 147.878C746.628 146.368 740.728 146.52 737.421 146.437C739.311 146.113 740.612 146.064 742.538 145.965Z"/><path fill="#FEFEFE" d="M427.4 385.231C429.841 384.609 429.453 385.913 431.137 383.396C430.557 381.31 429.602 381.101 427.965 379.13L428.84 378.818C432.291 381.951 437.742 388.263 440.967 391.862L427.4 385.231Z"/><path fill="#FEFEFE" d="M108.378 434.358L108.556 434.179C110.024 433.834 112.392 437.293 114.778 438.157C125.273 441.956 123.071 432.592 128.849 430.222C126.132 434.367 123.349 438.469 120.502 442.526C117.759 441.133 109.994 436.824 108.378 434.358Z"/><path fill="#19191B" d="M385.518 222.444L385.996 223.549C383.744 224.917 381.475 226.255 379.188 227.563L378.496 227.119L378.33 227.257L378.577 227.837L377.985 227.565L378.143 227.994L377.706 228.044L378.496 227.087L378.077 227.994C378.193 227.252 378.013 227.495 378.413 227.151L378.912 227.663L378.74 226.887C380.356 225.598 383.671 223.623 385.518 222.444Z"/><path d="M349.459 181.541L349.581 181.635L349.546 182.255L349.614 181.756C349.097 183.184 326.773 203.245 323.154 206.657C314.834 214.594 306.698 222.722 298.752 231.034C269.154 261.67 245.525 290.698 223.546 327.089L223.474 327.076L223.166 326.611C243.712 278.731 288.126 232.331 327.765 199.633C334.973 193.687 342.063 187.234 349.459 181.541Z"/><path fill="#FEFEFE" d="M659.912 305.488C663.423 305.877 693.25 319.672 698.837 322.041C708.79 326.265 718.879 330.16 729.089 333.72C719.556 332.679 710.072 331.8 700.537 330.669C658.53 325.688 616.446 317.949 574.88 310.033C571.809 309.677 568.323 308.961 565.31 308.265C566.754 307.687 589.496 312.245 592.937 312.845C627.188 318.817 661.348 325.69 695.905 329.643C700.924 330.217 705.801 330.389 710.655 331.352L711.491 331.524C712.899 329.137 713.549 329.863 716.357 329.816C715.999 329.705 715.044 329.422 714.792 329.263C711.11 326.948 707.451 326.973 703.394 324.842C698.942 322.504 693.142 320.193 688.426 318.116C678.931 313.935 669.423 309.572 659.912 305.488Z"/><path fill="#6C6E65" d="M716.625 612.915C734.703 604.097 773.051 590.106 792.952 586.557C810.478 627.479 822.495 670.546 828.689 714.63C815.335 717.426 802.055 720.199 788.946 724.033C758.64 732.897 728.848 744.838 699.335 756.19C694.658 758.422 688.868 760.844 684.458 763.335C662.017 776.01 637.203 784.32 614.771 796.558C555.165 829.768 504.233 876.568 466.111 933.157C459.46 924.556 450.376 906.236 446.032 896.208C440.106 882.527 427.759 854.199 433.828 840.059C440.077 825.497 454.503 808.366 465.038 796.308C511.45 743.191 565.941 700.66 625.246 663.002C654.436 644.088 684.978 627.347 716.625 612.915Z"/><path fill="#444449" d="M716.625 612.915C734.703 604.097 773.051 590.106 792.952 586.557C810.478 627.479 822.495 670.546 828.689 714.63C815.335 717.426 802.055 720.199 788.946 724.033C758.64 732.897 728.848 744.838 699.335 756.19C701.457 752.124 709.034 747.93 712.859 744.875C733.812 728.143 746.452 700.718 743.871 673.643C742.007 654.081 732.284 626.379 716.625 612.915Z"/><path fill="#444449" d="M479.208 547.463C488.777 544.506 495.077 543.864 504.485 547.617C511.736 569.435 517.522 603.582 514.442 626.398C508.697 668.943 484.643 709.701 461.176 744.854C459.019 748.084 455.367 753.89 452.656 756.368C448.736 761.411 442.944 767.111 438.679 772.283C432.488 778.931 425.768 788.912 419.354 794.985C412.627 801.355 389.502 809.18 380.794 806.931C369.403 803.989 361.643 785.045 354.891 775.704C342.587 758.686 336.676 755.91 317.645 749.821C312.085 739.163 313.108 735.463 300.098 736.43C297.727 736.607 293.339 735.992 290.89 735.616C288.251 732.552 286.694 728.753 285.069 725.087C283.22 721.281 281.425 716.65 278.06 713.935C270.224 707.613 245.9 714.685 230.118 703.167C226.629 700.679 224.771 697.641 225.331 693.246C226.494 684.11 229.648 675.306 231.494 666.247C235.381 646.416 236.878 626.191 235.951 606.005C247.431 606.022 259.049 605.006 270.544 604.484C289.967 603.58 309.199 602.59 328.367 599.042C374.978 590.417 417.711 568.571 462.008 552.614C467.572 550.61 473.543 549.224 479.208 547.463Z"/><path fill="#2D2C31" d="M479.208 547.463C488.777 544.506 495.077 543.864 504.485 547.617C511.736 569.435 517.522 603.582 514.442 626.398C508.697 668.943 484.643 709.701 461.176 744.854C459.019 748.084 455.367 753.89 452.656 756.368C453.618 749.138 463.11 736.727 466.983 729.118C482.827 697.997 503.241 660.729 510.037 626.392C511.585 618.576 507.929 596.62 506.198 588.786C502.158 570.493 495.499 557.532 479.208 547.463Z"/><path fill="#2D2C31" d="M230.118 703.167C238.805 702.221 247.421 700.696 255.906 698.604C263.56 696.791 270.442 694.714 278.408 693.807C286.311 692.906 287.673 699.093 287.845 705.727C287.97 710.531 287.707 720.944 285.069 725.087C283.22 721.281 281.425 716.65 278.06 713.935C270.224 707.613 245.9 714.685 230.118 703.167Z"/><path fill="#D9C9B9" d="M467.703 530.054C455.668 503.874 445.871 478.632 441.312 450.04C440.548 445.25 439.307 439.743 439.751 434.905C440.113 430.964 441.7 426.939 443.069 423.261C447.66 410.93 453.25 402.115 465.665 396.508C470.819 394.179 476.084 394.007 481.357 396.123C489.054 399.211 523.138 426.461 528.843 433.028C532.417 437.141 534.63 441.526 536.641 446.572C537.445 448.591 538.197 450.749 538.281 452.939C538.727 464.507 532.644 515.946 528.376 525.252C525.037 532.531 516.892 540.047 509.314 542.656C508.073 543.08 506.816 543.457 505.545 543.785C500.29 542.284 494.231 540.581 488.689 541.478C468.161 544.801 446.646 554.395 427.462 561.918C399.189 573.006 368.831 586.301 339.299 592.975C306.708 600.34 269.17 600.845 235.66 602.429C230.963 590.948 224.848 582.923 215.912 574.508C212.063 570.884 211.271 570.825 213.628 566.268C218.692 568.258 225.255 567.836 230.241 569.142L231.615 569.705C236.606 565.389 237.88 562.852 241.337 557.058C245.853 548.646 261.645 519.381 262.61 511.896C277.218 497.155 307.2 480.847 325.803 470.855C331.848 467.608 341.541 462.467 347.704 460.088C369.118 465.299 390.24 470.11 409.025 482.422C419.636 489.376 429.466 498.092 439.33 506.08C448.632 513.614 459.398 521.415 467.703 530.054Z"/><defs><linearGradient id="gradient_1" gradientUnits="userSpaceOnUse" x1="238.79727" y1="568.0661" x2="235.82027" y2="564.33466"><stop offset="0" stop-color="#B59D8E"/><stop offset="1" stop-color="#D3B9A6"/></linearGradient></defs><path fill="url(#gradient_1)" d="M241.337 557.058C243.147 562.442 237.758 574.868 231.615 569.705C236.606 565.389 237.88 562.852 241.337 557.058Z"/><path d="M480.919 402.515C489.657 403.6 499.734 415.822 504.09 422.939C497.324 423.783 489.151 425.463 482.294 426.653C494.187 432.536 508.786 438.985 517.378 449.127C523.08 455.858 524.151 463.01 523.267 471.326C521.286 489.967 519.142 492.906 505.263 504.393C501.862 507.132 489.472 517.642 485.565 515.023C474.667 507.717 485.827 480.568 484.601 471.759C483.622 464.728 461.096 458.115 457.757 451.285C455.884 444.776 460.136 425.743 463.279 419.404C467.841 410.204 471.545 406.019 480.919 402.515Z"/><path fill="#A08A79" d="M470.871 428.626C476.164 427.719 480.762 430.278 485.393 432.416C501.702 439.994 521.998 449.233 519.464 470.742C517.896 484.044 517.764 490.913 505.794 499.341C502.078 501.958 490.769 512.176 487.119 511.823C477.806 505.867 492.666 477.557 486.703 467.49C480.284 460.195 463.923 455.152 461.128 450.233L461.579 449.812C469.509 449.242 483.139 453.178 489.129 458.618C496.85 465.63 499.883 472.375 497.863 482.611C499.514 479.539 500.144 478.379 501.274 475.046C495.923 451.928 481.996 448.632 460.968 446.718C461.636 441.147 462.579 435.611 463.794 430.133C466.064 429.59 468.569 429.114 470.871 428.626Z"/><path fill="#A08A79" d="M480.328 405.9C487.172 405.965 497.219 417.375 501.608 422.135C496.12 423.061 488.867 423.725 483.218 424.404C475.355 424.442 471.452 425.182 463.902 427.336C466.295 417.271 471.079 410.721 480.328 405.9Z"/><path d="M254.178 551.7C251.744 555.294 250.62 558.177 246.63 560.039L245.95 559.835C245.582 556.399 250.381 550.447 252.441 547.741C263.544 533.16 287.65 524.377 305.227 520.077C308.082 535.52 300.352 559.885 291.408 572.512C287.224 578.42 278.485 588.274 272.7 592.739C275.612 588.041 278.07 585.265 281.035 580.984L280.697 580.682C279.789 581.402 280.139 581.176 279.007 581.551L277.283 580.682C273.45 580.499 270.604 580.501 266.765 580.623C262.582 579.142 253.954 572.062 252.404 568.048C249.089 559.466 258.616 552.954 265.072 550.251L254.178 551.7Z"/><path fill="#FEFEFE" d="M267.526 554.813C272.924 551.501 277.903 549.302 282.962 546.311L290.589 561.822C289.164 569.002 285.72 575.364 281.035 580.984L280.697 580.682C279.909 577.566 275.307 573.34 273.125 569.182C270.1 563.421 269.349 561.11 267.526 554.813Z"/><defs><linearGradient id="gradient_2" gradientUnits="userSpaceOnUse" x1="268.65131" y1="562.31653" x2="267.83401" y2="579.49213"><stop offset="0" stop-color="#AF8F7C"/><stop offset="1" stop-color="#C7A991"/></linearGradient></defs><path fill="url(#gradient_2)" d="M262.608 558.195C262.849 560.974 264.726 564.244 266.303 566.502C267.324 567.011 267.409 567.099 268.489 567.428C271.399 572.815 273.451 575.879 277.283 580.682C273.45 580.499 270.604 580.501 266.765 580.623L265.803 578.671C265.425 572.153 261.79 568.023 259.188 562.717L258.796 561.904C259.946 560.629 261.343 559.38 262.608 558.195Z"/><path fill="#FEFEFE" d="M258.796 561.904L259.188 562.717C261.79 568.023 265.425 572.153 265.803 578.671C263.138 575.693 257.465 569.522 256.689 565.49C256.406 564.019 257.733 563.084 258.796 561.904Z"/><path fill="#A08A79" d="M262.608 558.195L264.628 556.82C266.925 557.638 267.315 564.51 268.489 567.428C267.409 567.099 267.324 567.011 266.303 566.502C264.726 564.244 262.849 560.974 262.608 558.195Z"/><path fill="#D9C9B9" d="M300.533 524.012C301.529 523.953 301.043 523.838 301.961 524.462C302.769 529.939 300.26 530.899 295.3 533.314C283 539.303 271.087 545.879 257.649 548.936C257.283 548.957 256.82 548.78 256.425 548.674C260.472 536.914 289.414 527.804 300.533 524.012Z"/><path fill="#444449" d="M300.385 536.574L300.672 536.773C300.555 542.687 295.639 554.162 293.257 559.867L290.867 555.206C289.418 551.962 287.467 548.272 285.866 545.047C290.896 542.331 295.504 539.533 300.385 536.574Z"/><path fill="#444449" d="M121.39 474.125C112.761 458.573 116.076 456.752 124.725 442.66C155.412 392.662 208.058 365.786 264.106 354.512C287.156 349.875 285.489 348.887 309.043 353.711C321.965 356.289 334.797 359.301 347.517 362.741L370.821 368.868C356.735 367.83 335.224 370.189 320.793 371.882C314.37 372.635 305.009 375.107 298.844 375.005C290.761 377.467 283.015 379.567 275.158 382.706C290.431 380.035 305.426 376.366 320.862 374.355C333.857 372.661 346.757 371.988 359.853 371.675C364.56 371.563 373.675 370.452 377.932 371.664C392.587 375.834 407.541 381.687 421.832 387.108C425.723 388.585 430.047 390.788 433.731 392.121L434.569 392.478L433.608 393.691C438.487 393.951 440.332 396.246 444.401 397.953C415.275 400.59 383.215 410.217 355.706 420.19C354.976 420.455 355.577 420.378 354.877 420.408C355.334 419.309 355.011 419.772 355.807 418.994L355.88 418.223C350.888 420.546 308.525 444.278 308.202 445.484C311.691 444.42 317.515 440.974 320.982 439.116C326.666 436.012 332.446 433.09 338.316 430.356C357.236 421.49 376.435 415.685 396.587 410.142C403.974 408.11 445.969 398.395 450.784 401.227C446.388 406.091 444.53 409.659 441.189 415.24C431.907 419.626 418.302 424.496 408.302 428.719C385.915 438.035 363.752 447.879 341.832 458.244C323.765 466.644 306.324 476.903 289.365 487.328C253.461 509.398 218.962 537.132 204.053 577.989C198.674 575.048 194.213 572.395 189.015 569.141C192.489 562.167 196.787 553.062 200.995 546.398C213.092 527.245 228.301 510.758 244.904 495.264C255.041 485.803 269.443 474.999 278.167 464.277C279.212 462.993 278.886 459.259 278.166 457.543C268.307 434.048 249.921 406.715 228.294 393.204C225.023 391.16 221.743 391.705 218.589 392.757C186.407 403.484 136.722 444.193 121.39 474.125Z"/><defs><linearGradient id="gradient_3" gradientUnits="userSpaceOnUse" x1="396.87589" y1="400.89865" x2="399.87152" y2="410.56107"><stop offset="0" stop-color="#060607"/><stop offset="1" stop-color="#434349"/></linearGradient></defs><path fill="url(#gradient_3)" d="M433.731 392.121L434.569 392.478L433.608 393.691C438.487 393.951 440.332 396.246 444.401 397.953C415.275 400.59 383.215 410.217 355.706 420.19C354.976 420.455 355.577 420.378 354.877 420.408C355.334 419.309 355.011 419.772 355.807 418.994L355.88 418.223C361.595 412.578 403.518 397.77 413.385 395.751C419.601 394.48 427.255 393.197 433.731 392.121Z"/><path fill="#2D2C31" d="M347.517 362.741L370.821 368.868C356.735 367.83 335.224 370.189 320.793 371.882C314.37 372.635 305.009 375.107 298.844 375.005C307.933 371.063 324.664 368.344 334.703 365.57C337.799 364.714 345.101 364.079 347.517 362.741Z"/><defs><linearGradient id="gradient_4" gradientUnits="userSpaceOnUse" x1="833.04956" y1="938.01904" x2="693.3808" y2="752.04327"><stop offset="0" stop-color="#575953"/><stop offset="1" stop-color="#76796F"/></linearGradient></defs><path fill="url(#gradient_4)" d="M646.34 786.396C680.05 772.265 721.556 763.004 758.349 765.252C787.502 767.882 820.125 778.099 845.145 793.498C867.616 807.329 893.12 829.101 904.655 852.998C914.534 873.467 898.967 894.226 880.289 902.216C865.081 908.721 842.411 899.305 827.358 893.918C828.827 893.013 832.702 892.183 834.5 891.646C841.803 889.468 849.303 887.65 855.891 883.659C858.053 882.349 863.325 878.587 863.107 875.834C872.089 874.013 878.119 871.474 883.64 863.54C886.726 859.106 888.229 853.685 886.894 848.326C881.204 825.486 853.358 804.209 834.58 792.089C824.228 785.408 802.798 774.66 791.727 772.927L791.541 773.412C802.17 779.001 814.818 784.149 825.091 790.97C846.253 805.021 871.985 822.72 882.263 846.739C887.755 865.383 865.714 874.444 851.296 871.394C823.894 865.597 797.715 855.537 771.105 847.218C718.613 830.807 678.037 832.47 625.239 846.05C626.633 828.236 639.624 802.6 646.34 786.396Z"/><path fill="#444449" d="M538.094 493.475C544.056 501.245 558.607 516.381 565.674 523.773C579.116 537.83 605.237 567.673 620.891 577.402C615.884 565.183 609.027 552.016 604.485 539.736C609.234 542.718 623.452 550.655 626.459 553.756C639.467 567.166 652.561 584.941 664.675 599.072C655.533 603.638 646.555 608.526 637.759 613.727C635.395 615.105 624.766 621.579 622.759 622.393C591.039 641.664 552.285 667.756 524.225 691.876C512.89 701.922 502.034 710.364 490.566 721.222C507.456 695.22 515.68 674.192 522.706 643.813C526.239 628.539 528.771 618.248 530.287 602.417C531.476 593.363 531.795 580.844 531.873 571.658C531.594 570.294 531.673 569.381 530.87 568.556C529.241 581.648 528.443 594.861 526.544 607.979C521.983 639.48 514.569 668.192 500.553 696.774C490.279 717.727 485.093 724.699 469.149 741.567L469.447 740.815C472.343 733.615 477.945 726.465 481.958 719.81C499.833 690.165 517.859 653.89 519.458 618.551C520.208 601.992 515.766 566.697 509.468 551.553C508.982 550.391 508.476 549.237 507.949 548.092C536.199 537.192 533.284 518.059 538.094 493.475Z"/><path fill="#2D2C31" d="M538.094 493.475C544.056 501.245 558.607 516.381 565.674 523.773C579.116 537.83 605.237 567.673 620.891 577.402C615.884 565.183 609.027 552.016 604.485 539.736C609.234 542.718 623.452 550.655 626.459 553.756C639.467 567.166 652.561 584.941 664.675 599.072C655.533 603.638 646.555 608.526 637.759 613.727C635.395 615.105 624.766 621.579 622.759 622.393C621.599 618.358 617.96 605.93 615.677 602.155C604.988 584.485 580.953 562.563 563.835 551.459C562.421 550.542 542.974 546.421 538.616 545.065C534.817 552.502 533.312 563.281 531.873 571.658C531.594 570.294 531.673 569.381 530.87 568.556C529.241 581.648 528.443 594.861 526.544 607.979C521.983 639.48 514.569 668.192 500.553 696.774C490.279 717.727 485.093 724.699 469.149 741.567L469.447 740.815C472.343 733.615 477.945 726.465 481.958 719.81C499.833 690.165 517.859 653.89 519.458 618.551C520.208 601.992 515.766 566.697 509.468 551.553C508.982 550.391 508.476 549.237 507.949 548.092C536.199 537.192 533.284 518.059 538.094 493.475Z"/><path fill="#2D2C31" d="M490.566 721.222C507.456 695.22 515.68 674.192 522.706 643.813C526.239 628.539 528.771 618.248 530.287 602.417C533.877 611.901 524.491 676.297 524.225 691.876C512.89 701.922 502.034 710.364 490.566 721.222Z"/><path fill="#BCBABA" d="M501.575 405.554C528.22 404.824 576.863 414.004 601.583 423.833C611.723 427.84 621.34 433.063 630.222 439.387C637.491 444.571 641.483 448.892 642.976 457.896C631.568 449.871 623.683 444.266 611.004 438.389C617.064 444.725 622.27 447.818 628.973 452.992C648.325 467.93 669.408 479.926 691.497 490.466C683.774 488.892 676.698 488.719 669.148 487.591C661 486.374 650.735 483.748 642.894 481.099C632.414 477.558 626.549 472.558 615.399 469.008C619.052 471.88 622.917 474.484 626.706 477.168C655.827 497.794 681.491 520.519 706.272 546.168C700.008 543.345 692.613 540.669 686.129 538.171C677.234 534.219 666.983 530.689 657.838 526.839C647.131 522.332 634.002 515.554 623.163 512.327C643.746 532.816 656.296 550.561 672.56 574.19C654.7 563.487 636.143 553.528 618.266 542.837C610.666 538.292 603.059 532.79 595.557 527.936C599.202 538.259 609.397 558.34 614.604 568.43C602.871 557.642 591.424 545.027 580.414 533.383C566.295 518.451 551.661 504.52 539.508 487.978C539.413 477.357 542.811 460.728 542.038 451.525C540.345 431.362 516.48 417.339 501.575 405.554Z"/><path fill="#FEFEFE" d="M197.866 406.068C204.994 401.849 215.544 396.457 223.657 394.619C241.657 402.318 269.949 443.888 275.334 462.199C265.406 473.813 250.856 485.209 239.615 495.83C227.106 507.649 216.045 520.256 205.338 533.736C197.969 544.178 191.88 555.467 187.201 567.36C183.885 563.719 169.569 547.029 169.443 543.367C172.774 545.482 176.564 545.208 178.38 541.43C181.378 534.34 181.132 525.654 179.207 518.16C175.906 505.312 163.102 493.941 149.288 496.775C145.503 498.577 147.503 505.443 147.843 507.771C148.775 514.138 161.759 533.677 169.401 528.135C170.868 527.071 171.807 525.428 171.981 523.624C172.837 515.511 161.87 503.131 156.597 508.367C157.688 510.152 162.465 510.154 165.099 514.26C166.921 517.101 168.847 520.169 168.298 523.96L167.435 524.504C160.271 523.955 152.958 511.805 151.418 505.402C151.062 503.919 150.938 500.302 153.186 500.505C158.336 500.969 163.952 503.715 167.777 507.152C175.119 513.364 180.212 530.477 174.236 538.561C170.762 543.259 161.438 533.078 159.515 530.385C153.168 521.497 145.503 512.708 140.529 503.014C139.007 500.048 141.012 489.843 144.385 487.96C146.527 486.752 150.26 487.632 152.592 487.99C151.267 479.194 152.117 468.968 153.519 460.235C154.1 456.611 155.293 452.887 155.336 449.295C150.532 458.883 146.678 472.308 147.849 483.094L146.927 483.364C138.113 485.895 136.968 489.604 135.714 498.311C132.437 491.911 123.025 481.203 125 474.15C126.518 468.73 132.765 461.175 136.465 456.939C153.976 436.897 174.455 418.919 197.866 406.068Z"/><path fill="#BCBABA" d="M197.866 406.068C204.994 401.849 215.544 396.457 223.657 394.619C241.657 402.318 269.949 443.888 275.334 462.199C265.406 473.813 250.856 485.209 239.615 495.83C227.106 507.649 216.045 520.256 205.338 533.736C204.458 531.157 206.131 512.478 206.205 507.689C206.67 477.837 206.67 447.971 200.895 418.541C200.258 415.295 199.303 408.748 197.866 406.068Z"/><path d="M219.956 404.047C229.365 403.657 234.509 414.158 224.923 418.543C215.79 418.425 210.77 409.569 219.956 404.047Z"/><path fill="#A59C93" d="M218.776 406.889C223.968 406.596 229.014 409.782 225.499 415.299C219.265 416.404 215.58 412.885 218.776 406.889Z"/><path d="M243.646 428.45C252.073 428.617 257.438 438.321 247.715 443.271C238.533 443.936 235.029 434.308 243.646 428.45Z"/><path fill="#A59C93" d="M244.004 430.757C249.431 431.859 252.515 436.684 247.101 440.737C240.655 439.814 238.983 435.441 244.004 430.757Z"/><path d="M258.82 455.504C267.815 454.973 274.051 462.623 265.164 468.749C256.973 470.738 252.275 461.96 258.82 455.504Z"/><path fill="#A59C93" d="M259.939 457.821C265.184 457.869 268.265 460.936 264.409 465.881C258.559 467.304 256.806 462.103 259.939 457.821Z"/><path fill="#6C6E65" d="M448.425 976.064C459.591 1001.6 481.068 963.317 488.706 954.033C497.448 943.408 506.244 932.827 515.59 922.777C567.427 867.006 642.432 832.207 719.34 840.728C756.645 844.861 791.225 858.464 826.646 869.783C838.962 873.718 850.067 876.184 863.107 875.834C863.325 878.587 858.053 882.349 855.891 883.659C849.303 887.65 841.803 889.468 834.5 891.646C832.702 892.183 828.827 893.013 827.358 893.918L791.757 880.999C775.282 874.933 760.245 869.273 742.924 865.725C675.276 851.57 604.883 869.446 552.186 914.162C535.26 928.46 523.934 941.659 510.597 958.953C504.841 966.35 499.24 973.866 493.799 981.498C485.364 993.225 460.71 1031.49 445.429 1002.5C440.943 993.986 445.132 984.352 448.425 976.064Z"/><path fill="#6C6E65" d="M739.096 574.643C740.997 583 711.335 598.361 708.912 602.799C656.472 626.048 604.373 658.876 558.407 693.259C516.661 724.078 478.805 759.845 445.668 799.776C436.273 811.144 420.075 831.147 418.497 845.438C415.712 870.65 443.942 926.533 458.607 945.541C456.076 949.978 453.696 954.895 451.403 959.487C437.761 947.453 410.713 891.365 405.066 872.03C400.188 855.33 395.935 842.389 404.59 826.555C419.721 798.872 441.464 774.738 463.495 752.7C502.444 713.222 545.403 677.913 591.674 647.344C632.673 619.796 675.274 595.244 722.499 579.993C728.031 578.207 733.56 576.416 739.096 574.643Z"/><path fill="#444449" d="M381.351 330.91C396.344 332.458 413.759 333.714 428.417 335.795C486.5 343.573 542.817 361.266 594.912 388.105C605.325 393.572 617.294 398.407 625.719 407.346C628.306 410.092 630.11 418.293 631.083 422.161C624.668 418.509 617.315 415.968 610.919 413.292C559.85 391.92 504.786 386.214 450.135 393.302C448.583 393.503 446.66 393.153 445.292 392.183L445.189 391.279C448.323 389.852 465.884 388.658 470.65 388.24C474.611 389.623 488.764 387.96 493.683 388.217C512.509 389.201 531.544 388.423 550.021 392.891C551.18 393.171 550.548 393.203 551.657 392.861C541.09 388.503 478.326 385.326 465.234 387.465C458.458 387.512 450.518 388.414 443.743 389.22C426.623 368.052 403.345 346.838 381.351 330.91Z"/><path d="M428.835 363.213C430.711 363.8 475.99 363.351 482.129 363.749C520.734 366.582 558.653 375.469 594.496 390.086C597.608 391.341 600.678 392.586 603.729 393.972C608.068 395.943 608.709 396.471 611.443 400.189C600.3 395.459 588.979 390.119 577.432 386.287C546.878 376.146 513.959 368.957 481.888 366.554C469.508 365.745 457.12 365.086 444.725 364.575C441.446 364.434 431.006 364.454 428.502 363.737L428.835 363.213Z"/><path fill="#444449" d="M662.369 432.047C664.272 432.013 665.942 432.523 667.642 432.309C672.254 431.341 680.996 433.922 686.173 433.781C708.72 433.164 724.966 432.269 744.606 445.529C764.653 459.063 775.5 479.694 792.854 496.08C801.982 504.738 806.718 505.52 815.122 512.021C787.057 507.533 731.906 507.792 708.598 495.527C698.471 490.198 689.318 481.308 681.099 473.394C673.201 465.788 664.762 457.737 658.082 449.013L657.716 448.896C656.857 449.274 656.328 449.534 655.504 449.958C654.942 449.208 655.26 449.173 655.881 447.626C657.479 443.643 657.5 439.923 657.747 435.666C657.784 433.872 658.019 433.899 659.236 432.868L662.369 432.047Z"/><path d="M662.369 432.047C664.272 432.013 665.942 432.523 667.642 432.309L668.538 433.722C687.423 440.747 707.442 451.551 725.987 459.842C728.895 461.142 739.138 467.938 740.484 470.678L739.897 471.244C736.485 471.169 727.347 467.842 723.487 466.645C710.5 462.617 698.742 459.13 686.189 453.83C678.234 450.472 668.424 444.777 660.939 441.924C660.657 444.941 659.81 446.524 658.082 449.013L657.716 448.896C656.857 449.274 656.328 449.534 655.504 449.958C654.942 449.208 655.26 449.173 655.881 447.626C657.479 443.643 657.5 439.923 657.747 435.666C657.784 433.872 658.019 433.899 659.236 432.868L662.369 432.047Z"/><defs><linearGradient id="gradient_5" gradientUnits="userSpaceOnUse" x1="660.55695" y1="442.3248" x2="655.65015" y2="440.73001"><stop offset="0" stop-color="#060607"/><stop offset="1" stop-color="#323232"/></linearGradient></defs><path fill="url(#gradient_5)" d="M657.747 435.666C657.784 433.872 658.019 433.899 659.236 432.868L659.423 433.346C663.729 436.913 659.733 439.037 660.939 441.924C660.657 444.941 659.81 446.524 658.082 449.013L657.716 448.896C656.857 449.274 656.328 449.534 655.504 449.958C654.942 449.208 655.26 449.173 655.881 447.626C657.479 443.643 657.5 439.923 657.747 435.666Z"/><path fill="#19191B" d="M662.369 432.047C664.272 432.013 665.942 432.523 667.642 432.309L668.538 433.722C665.176 433.189 662.671 432.508 659.423 433.346L659.236 432.868L662.369 432.047Z"/><path fill="#444449" d="M662.44 434.581L705.08 453.792C714.025 457.877 724.28 462.223 732.472 467.527C729.473 467.011 720.343 463.538 717.046 462.364C699.232 456.021 679.655 448.379 662.998 439.281C662.295 438.089 662.463 436.047 662.44 434.581Z"/><path fill="#6C6E65" d="M613.892 802.017L614.163 802.295C614.049 803.575 614.227 802.87 613.778 803.854C606.391 820.057 597.426 841.256 594.817 858.718C565.127 873.944 548.047 885.768 523.538 908.779C511.219 920.441 499.744 932.962 489.198 946.249C482.279 955.043 475.816 964.412 468.38 972.748C464.655 976.925 459.316 981.28 453.734 978.156C447.581 970.321 455.068 962.99 458.454 955.436C461.249 949.2 465.257 943.071 468.947 937.333C505.738 881.279 555.445 834.874 613.892 802.017Z"/><path fill="#FEFEFE" d="M434.503 422.594C434.742 423.047 435.455 435.464 435.586 437.476C437.383 465.021 445.079 486.007 455.426 511.01C450.241 504.537 444.759 495.18 439.924 488.065C433.848 479.125 428.692 472.76 421.576 464.673C427.528 477.4 442.487 500.03 451.563 510.739L446.315 506.521C441.467 502.099 435.728 498.054 430.715 493.762C408.174 474.463 381.112 461.662 351.28 458.334C375.55 446.387 408.926 431.425 434.503 422.594Z"/><path fill="#6C6E65" d="M789.007 580.126L789.647 580.14C790.802 581.095 790.371 580.513 790.716 582.078C789.954 583.177 788.377 583.671 787.112 583.935C768.467 587.821 750.982 594.58 733.192 601.356C696.331 615.396 661.575 635.255 628.262 656.238C615.018 664.58 601.67 672.889 588.876 681.925C568.931 695.739 549.658 710.499 531.122 726.153C506.36 747.063 432.891 815.482 428.354 845.24C424.99 867.305 450.686 919.64 463.965 937.016L461.307 941.669C446.053 922.052 429.995 885.464 423.81 861.114C420.301 847.301 424.043 836.294 431.967 824.799C443.908 807.477 460.412 788.319 474.911 773.095C486.114 761.331 501.805 745.559 514.074 734.884C587.187 671.275 694.312 600.683 789.007 580.126Z"/><path fill="#2D2C31" d="M488.001 393.746C525.405 391.849 564.55 399.832 599.815 412.112C610.189 415.725 620.672 421.154 631.063 425.006C630.79 427.128 630.163 432.941 628.954 434.489C608.62 418.601 576.541 411.657 551.57 407.13C535.321 404.185 513.949 401.165 497.506 402.386C495.048 401.019 488.124 396.636 486.85 394.232L488.001 393.746Z"/><path fill="#444449" d="M739.096 574.643C749.375 571.203 769.646 565.877 780.513 565.281C784.771 569.059 785.574 571.629 788.041 576.571C768.941 579.637 748.066 587.298 729.99 594.161C722.982 596.821 716.04 600.204 708.912 602.799C711.335 598.361 740.997 583 739.096 574.643Z"/><path fill="#A08A79" d="M252.099 519.341C253.677 520.248 254.915 520.058 256.758 520.079C250.279 531.466 243.989 542.96 237.892 554.557C236.351 557.498 231.907 567.067 230.241 569.142C225.255 567.836 218.692 568.258 213.628 566.268C223.638 548.07 235.519 532.099 252.099 519.341Z"/><path fill="#2D2C31" d="M624.262 400.813C640.653 404.946 645.616 420.309 644.436 435.622C644.11 439.857 642.983 443.683 642.804 448.012L642.783 448.689C642.874 448.533 642.965 448.377 643.056 448.22L643.498 447.431C649.855 436.204 647.618 419.237 641.039 408.615C644.591 410.903 646.15 412.304 649.013 415.315C652.557 421.237 654.506 427.976 654.671 434.876C654.836 443.439 652.458 448.145 646.791 454.02C643.63 446.087 638.109 440.677 631.193 436.062C636.462 424.557 632.07 410.091 624.262 400.813Z"/><path fill="#6C6E65" d="M640.94 788.534C641.436 789.548 637.795 794.925 636.743 797.379C630.141 812.78 622.166 830.695 621.4 847.503C618.168 848.444 615.193 849.744 612.084 851.025L611.538 850.447C612.371 836.483 625.179 806.161 631.492 793.169C634.191 791.631 638.059 789.911 640.94 788.534Z"/><path fill="#6C6E65" d="M397.353 832.462C398.072 833.872 396.76 836.385 396.511 838.515C395.846 845.561 396.12 853.818 397.885 860.742C406.645 895.123 423.176 929.159 444.395 957.566C445.58 959.152 449.407 962.579 449.343 964.151L448.626 964.116C443.12 959.682 436.52 951.703 432.897 945.729C419.498 923.642 380.334 855.61 397.353 832.462Z"/><path fill="#6C6E65" d="M625.456 796.02L625.61 796.157C625.695 796.616 618.251 813.06 617.26 816.022C613.258 827.979 608.632 840.238 607.8 852.907L600.218 856.566L599.696 856.071C598.95 846.99 615.838 809.574 619.426 798.905L625.456 796.02Z"/><path fill="#FEFEFE" d="M654.744 453.341C656.989 454.771 667.536 466.134 670.217 468.841C675.466 474.089 680.914 479.135 686.547 483.968C684.46 482.941 682.545 481.792 680.536 480.626C676.245 478.159 648.584 462.29 647.814 459.817C649.988 457.187 652.369 456.189 654.744 453.341Z"/><path fill="#444449" d="M210.46 572.272C213.203 575.842 223.727 586.491 225.002 589.736L223.884 589.643C218.629 587.908 211.526 585.792 207.008 582.902C208.125 578.939 209.005 576.111 210.46 572.272Z"/><path fill="#FEFEFE" d="M41.8665 270.372C44.5015 276.474 46.9346 282.1 49.9011 288.045C49.1371 289.137 44.4936 292.39 43.1096 292.511C42.5034 285.218 42.2196 277.693 41.8665 270.372Z"/><path fill="#2D2C31" d="M657.747 435.666C657.647 432.24 656.855 428.541 657.284 425.365L657.929 425.179C659.756 427.032 661.062 429.732 662.369 432.047L659.236 432.868C658.019 433.899 657.784 433.872 657.747 435.666Z"/><path fill="#444449" d="M449.855 395.774C452.03 395.616 456.845 395.031 458.616 395.676L458.58 396.26L456.232 397.86L452.782 400.205C451.577 398.433 450.832 397.791 449.855 395.774Z"/><path fill="#A59C93" d="M252.099 519.341C255.114 516.825 257.148 515.128 260.415 512.986C259.216 515.503 258.224 517.69 256.758 520.079C254.915 520.058 253.677 520.248 252.099 519.341Z"/><path fill="#FEFEFE" d="M439.993 420.773C440.918 423.206 439.471 426.152 438.546 428.646C438.295 425.118 437.078 422.933 439.993 420.773Z"/></svg>