<?xml version="1.0" encoding="utf-8" ?><svg xmlns="http://www.w3.org/2000/svg" xmlns:xlink="http://www.w3.org/1999/xlink" width="1024" height="1024" viewBox="0 0 1024 1024"><path d="M0 0L1024 0L1024 1024L846.707 1024L841.791 1024L830.521 1024L827.521 1024L821.098 1024L818.173 1024L814.45 1024L811.267 1024L714.624 1024L710.826 1024L706.793 1024L704.329 1024L697.855 1024L695.527 1024L693.163 1024L690.74 1024L682.623 1024L680 1024L677.441 1024L675.12 1024L668.342 1024L665.442 1024L661.85 1024L659.1 1024L649.381 1024L646.951 1024L643.892 1024L641.857 1024L630.034 1024L627.69 1024L623.893 1024L620.107 1024L547.706 1024L402.549 1024L397.265 1024L393.42 1024L389.113 1024L374.255 1024L368.707 1024L118.523 1024L116.588 1024L0 1024L0 0Z"/><path fill="#B3515F" d="M244.061 848.635C269.138 838.696 294.101 827.845 319.268 818.179C384.103 793.276 450.614 771.011 520.053 763.868C534.916 762.339 548.168 760.787 563.255 760.374C567.777 768.417 571.577 775.052 575.099 783.652C596.03 834.747 593.219 896.96 578.536 949.334C573.546 967.35 567.032 984.909 559.065 1001.82C555.564 1009.16 550.835 1017.05 547.706 1024L402.549 1024C383.528 957.882 336.754 884.833 271.192 856.736C262.43 852.981 253.297 850.858 244.061 848.635Z"/><path fill="#813F51" d="M563.255 760.374C585.638 759.466 617.889 761.009 639.857 767.269C643.778 768.387 665.393 787.461 670.473 791.722C679.794 799.574 689.21 807.315 698.717 814.941C706.028 820.795 713.407 826.562 720.853 832.242C728.438 837.958 734.706 842.178 741.696 848.662C748.61 855.016 754.613 862.296 759.533 870.295C782.138 907.323 801.493 980.689 811.267 1024L714.624 1024L710.826 1024L706.793 1024L704.329 1024L697.855 1024L695.527 1024L693.163 1024L690.74 1024L682.623 1024L680 1024L677.441 1024L675.12 1024L668.342 1024L665.442 1024L661.85 1024L659.1 1024L649.381 1024L646.951 1024L643.892 1024L641.857 1024L630.034 1024L627.69 1024L623.893 1024L620.107 1024L547.706 1024C550.835 1017.05 555.564 1009.16 559.065 1001.82C567.032 984.909 573.546 967.35 578.536 949.334C593.219 896.96 596.03 834.747 575.099 783.652C571.577 775.052 567.777 768.417 563.255 760.374Z"/><path fill="#813F51" d="M630.034 1024L630.017 1023.33C629.651 1011.88 627.216 1000.13 627.175 988.401C627.096 965.414 629.133 936.269 643.513 917.526C650.946 907.838 660.631 914.587 666.877 921.582C690.234 947.742 700.849 990.045 704.329 1024L697.855 1024L695.527 1024L693.163 1024L690.74 1024L682.623 1024L680 1024L677.441 1024L675.12 1024L668.342 1024L665.442 1024L661.85 1024L659.1 1024L649.381 1024L646.951 1024L643.892 1024L641.857 1024L630.034 1024Z"/><path fill="#813F51" d="M649.381 1024C645.342 1002.05 643.399 977.972 650.28 956.591C652.397 950.013 658.003 946.236 664.268 952.065C677.673 968.946 688.705 1003.03 690.74 1024L682.623 1024L680 1024L677.441 1024L675.12 1024L668.342 1024L665.442 1024L661.85 1024L659.1 1024L649.381 1024Z"/><path fill="#FFFEFE" d="M661.85 1024C656.232 1010.48 654.141 992.014 658.564 977.494C659.54 974.444 662.828 971.911 665.874 974.116C668.877 976.292 670.84 980.808 672.36 984.098C678.267 996.881 680.32 1010.03 680 1024L677.441 1024L675.12 1024L668.342 1024L665.442 1024L661.85 1024Z"/><path fill="#813F51" d="M668.342 1024C660.766 1010.5 659.089 998.694 662.913 983.158C663.048 982.612 663.351 982.089 663.617 981.594C667.057 980.59 669.147 987.59 670.165 990.216C674.092 1000.35 676.565 1013.15 675.12 1024L668.342 1024Z"/><path d="M665.442 1024C658.074 1011.15 656.94 996.646 660.218 982.37C660.866 979.549 662.065 977.887 665.052 977.869C669 979.781 672.032 988.382 673.466 992.478C677.086 1002.57 678.443 1013.33 677.441 1024L675.12 1024C676.565 1013.15 674.092 1000.35 670.165 990.216C669.147 987.59 667.057 980.59 663.617 981.594C663.351 982.089 663.048 982.612 662.913 983.158C659.089 998.694 660.766 1010.5 668.342 1024L665.442 1024Z"/><path d="M659.1 1024C654.457 1009.27 650.725 989.621 657.447 974.691C661.485 965.721 669.109 972.557 672.215 978.652C679.78 993.495 682.52 1007.52 682.623 1024L680 1024C680.32 1010.03 678.267 996.881 672.36 984.098C670.84 980.808 668.877 976.292 665.874 974.116C662.828 971.911 659.54 974.444 658.564 977.494C654.141 992.014 656.232 1010.48 661.85 1024L659.1 1024Z"/><path fill="#FFFEFE" d="M643.892 1024C640.958 1002.48 637.946 979.954 643.265 958.434C644.477 952.943 648.021 941.811 654.847 941.41C665.611 940.777 674.388 958.357 678.383 966.159C688.034 985.009 692.371 1003.31 695.527 1024L693.163 1024L690.74 1024C688.705 1003.03 677.673 968.946 664.268 952.065C658.003 946.236 652.397 950.013 650.28 956.591C643.399 977.972 645.342 1002.05 649.381 1024L646.951 1024L643.892 1024Z"/><path d="M646.951 1024C642.813 1001.23 639.44 971.531 650.141 950.259C652.886 944.801 661.007 945.454 664.529 949.296C680.074 966.254 690.868 1002.01 693.163 1024L690.74 1024C688.705 1003.03 677.673 968.946 664.268 952.065C658.003 946.236 652.397 950.013 650.28 956.591C643.399 977.972 645.342 1002.05 649.381 1024L646.951 1024Z"/><path d="M641.857 1024C637.278 1000.35 634.046 966.645 646.035 944.72C652.047 933.725 663.287 939.036 669.357 947.303C686.715 970.945 693.798 995.249 697.855 1024L695.527 1024C692.371 1003.31 688.034 985.009 678.383 966.159C674.388 958.357 665.611 940.777 654.847 941.41C648.021 941.811 644.477 952.943 643.265 958.434C637.946 979.954 640.958 1002.48 643.892 1024L641.857 1024Z"/><path fill="#FEF1BF" d="M623.893 1024C619.375 988.095 617.77 940.711 638.556 909.049C646.392 897.112 657.629 900.759 666.352 909.21C695.066 937.031 707.852 985.313 710.826 1024L706.793 1024L704.329 1024C700.849 990.045 690.234 947.742 666.877 921.582C660.631 914.587 650.946 907.838 643.513 917.526C629.133 936.269 627.096 965.414 627.175 988.401C627.216 1000.13 629.651 1011.88 630.017 1023.33L630.034 1024L627.69 1024L623.893 1024Z"/><path d="M627.69 1024C624.212 993.407 621.503 966.565 630.715 936.345C638.623 910.406 654.221 897.939 673.723 924.573C694.013 952.285 703.815 990.095 706.793 1024L704.329 1024C700.849 990.045 690.234 947.742 666.877 921.582C660.631 914.587 650.946 907.838 643.513 917.526C629.133 936.269 627.096 965.414 627.175 988.401C627.216 1000.13 629.651 1011.88 630.017 1023.33L630.034 1024L627.69 1024Z"/><path d="M620.107 1024C615.821 985.713 612.558 938.612 636.064 905.428C644.65 893.306 658.462 895.727 668.161 904.812C697.645 932.433 711.86 982.074 714.527 1021.25C714.594 1022.16 714.626 1023.08 714.624 1024L710.826 1024C707.852 985.313 695.066 937.031 666.352 909.21C657.629 900.759 646.392 897.112 638.556 909.049C617.77 940.711 619.375 988.095 623.893 1024L620.107 1024Z"/><defs><linearGradient id="gradient_0" gradientUnits="userSpaceOnUse" x1="637.54895" y1="836.01715" x2="634.17328" y2="837.31879"><stop offset="0" stop-color="black"/><stop offset="1" stop-color="#1A0B0D"/></linearGradient></defs><path fill="url(#gradient_0)" d="M613.344 782.351C615.146 784.621 619.763 793.965 621.132 796.818C634.609 824.899 649.814 861.239 656.372 891.618C654.638 890.221 649.337 871.518 647.843 867.573C639.281 844.959 630.52 822.446 620.803 800.296C618.354 794.713 615.038 788.124 613.344 782.351Z"/><path fill="#FFFEFE" d="M118.523 1024C131.135 993.6 154.462 930.679 175.862 908.168C183.495 900.139 193.567 894.16 203.753 889.989C207.342 888.519 211.434 886.958 215.345 886.783C225.615 886.321 242.15 893.624 251.898 897.743C265.031 903.246 277.397 910.426 288.686 919.105C321.056 944.291 350.546 987.518 368.707 1024L118.523 1024Z"/><path fill="#B3515F" d="M222.989 858.356C231.539 860.153 241.452 862.291 249.416 865.776C313.769 893.938 366.438 958.234 389.113 1024L374.255 1024C345.451 965.91 301.475 907.629 237.629 887.837C217.709 881.662 212.117 880.387 192.958 890.445C171.102 901.063 160.442 919.075 150.71 940.305C152.407 921.127 158.422 896.515 174.014 884.099C184.975 875.372 209.658 861.937 222.989 858.356Z"/><defs><linearGradient id="gradient_1" gradientUnits="userSpaceOnUse" x1="303.27206" y1="949.04425" x2="336.31335" y2="908.18054"><stop offset="0" stop-color="#FFE9BC"/><stop offset="1" stop-color="#FEE8D5"/></linearGradient></defs><path fill="url(#gradient_1)" d="M226.392 855.547C228.35 854.635 234.592 851.651 236.227 851.445C242.638 850.638 256.213 854.872 262.133 857.147C314.684 877.347 356.882 928.233 379.767 978.323C386.106 992.197 392.636 1009.7 397.265 1024L393.42 1024C388.485 1009.52 381.306 994.712 373.985 981.271C348.285 934.087 311.37 893.154 263.322 868.138C252.019 862.253 239.023 857.28 226.392 855.547Z"/><path fill="#813F51" d="M762.954 863.161C773.944 870.933 785.469 879.943 793.199 891.04C806.73 910.466 813.453 936.541 819.138 959.351C824.093 979.233 827.684 1003.56 827.521 1024L821.098 1024C812.85 979.85 791.688 897.597 762.954 863.161Z"/><path fill="#FEF1BF" d="M765.478 873.011L765.947 872.072C791.473 912.736 807.872 976.868 818.173 1024L814.45 1024C810.514 1004.58 805.955 986.939 800.698 967.812C791.887 935.751 781.5 902.248 765.478 873.011Z"/><path fill="#FFFEFE" d="M815.481 932.191C819.205 937.721 821.78 946.371 823.998 952.745C832.177 976.256 836.95 999.655 841.791 1024L830.521 1024C831.439 994.18 824.882 960.39 815.481 932.191Z"/><path fill="#766A6F" d="M765.478 873.011C764.015 870.914 762.772 869.195 761.557 866.921L761.336 866.498L761.33 866.841L762.266 866.556C763.658 868.374 764.729 870.141 765.947 872.072L765.478 873.011Z"/><path fill="#F7C6C2" d="M748.738 767.658C738.599 755.599 726.999 735.71 719.285 721.654C685.197 659.541 667.646 602.732 654.39 533.504C646.984 494.824 643.65 454.835 641.732 415.516C639.38 367.328 638.211 246.051 665.177 206.779C668.759 201.563 673.165 197.174 679.673 196.092C692.85 193.902 705.646 201.689 715.956 208.886C744.404 228.745 769.684 253.197 792.495 279.223C854.695 350.194 895.822 430.764 923.159 520.716C929.954 543.075 936.662 566.063 940.759 589.084C942.151 592.935 945.556 616.024 946.234 620.518C930.746 584.209 899.101 536.391 873.573 506.045C868.536 500.149 863.238 494.48 857.695 489.057C845.703 477.194 845.538 477.37 838.384 462.051C835.397 455.714 832.284 449.438 829.049 443.224C822.093 429.962 813.322 417.734 804.748 405.483C800.919 401.281 772.063 372.458 769.75 372.33C768.747 374.843 776.985 388.648 778.539 391.548C782.579 398.977 786.234 406.609 789.489 414.413C806.777 455.958 820.157 502.675 830.574 546.457L831.504 546.178C818.959 491.387 807.163 435.882 780.739 385.789C797.105 400.855 805.248 412.951 816.857 431.135C854.601 489.123 862.094 556.072 877.851 621.411C893.396 685.87 915.436 771.238 959.66 821.79C941.827 811.675 923.085 801.891 905.785 790.95C890.922 781.549 874.254 769.708 860.424 758.818C797.907 708.821 748.111 644.738 715.104 571.809C704.27 547.357 695.054 522.22 687.517 496.559C678.648 466.865 670.862 432.703 667.211 401.886L666.244 394.859L665.3 395.606C666.812 409.623 668.6 421.726 671.058 435.582C671.923 440.454 674.078 450.923 674.54 455.367C693.324 544.981 721.284 610.52 777.73 683.108C777.396 696.146 778.861 706.145 780.495 719.139C785.304 757.38 794.933 793.957 809.772 829.547C813.689 838.944 818.325 846.447 822.952 855.259C800.477 831.199 778.008 806.223 757.766 780.252C756.356 778.443 749.511 769.47 748.738 767.658Z"/><path fill="#D9A2A1" d="M667.211 401.886L667.81 401.758C668.045 401.498 668.28 401.239 668.516 400.979C669.359 374.468 667.293 347.737 667.219 321.26C667.212 318.856 667.064 313.441 667.379 312.118L667.42 312.685L667.491 313.501C667.628 315.203 667.528 315.444 668.59 316.802L668.812 317.615C670.648 324.54 671.903 336.772 673.607 344.592C678.734 368.121 684.002 391.163 691.196 414.194C716.5 494.028 754.932 569.087 804.913 636.286C809.384 642.224 823.636 661.298 828.415 664.785C830.121 665.893 842.077 679.77 843.878 682.114C857.725 700.134 881.304 717.635 893.22 736.2C889.923 728.178 886.041 720.209 882.66 712.223C867.09 675.445 854.526 637.572 844.425 598.94C842.344 590.985 837.08 576.678 836.229 569.204C834.284 561.692 832.21 554.026 830.574 546.457L831.504 546.178C818.959 491.387 807.163 435.882 780.739 385.789C797.105 400.855 805.248 412.951 816.857 431.135C854.601 489.123 862.094 556.072 877.851 621.411C893.396 685.87 915.436 771.238 959.66 821.79C941.827 811.675 923.085 801.891 905.785 790.95C890.922 781.549 874.254 769.708 860.424 758.818C797.907 708.821 748.111 644.738 715.104 571.809C704.27 547.357 695.054 522.22 687.517 496.559C678.648 466.865 670.862 432.703 667.211 401.886Z"/><path fill="#3E3133" d="M830.574 546.457L831.504 546.178C832.605 550.369 836.635 565.718 836.229 569.204C834.284 561.692 832.21 554.026 830.574 546.457Z"/><path fill="#D9A2A1" d="M674.54 455.367C693.324 544.981 721.284 610.52 777.73 683.108C777.396 696.146 778.861 706.145 780.495 719.139C785.304 757.38 794.933 793.957 809.772 829.547C813.689 838.944 818.325 846.447 822.952 855.259C800.477 831.199 778.008 806.223 757.766 780.252C756.356 778.443 749.511 769.47 748.738 767.658C749.186 766.137 749.145 765.251 748.428 763.794C742.887 752.499 737.561 741.012 731.989 729.74C695.486 655.895 683.186 573.531 676.202 492.282C675.356 482.442 673.351 464.582 674.54 455.367Z"/><path fill="#D9A2A1" d="M804.748 405.483C809.153 407.593 823.474 421.864 827.662 425.812C863.114 459.228 889.872 496.278 912.92 539.05C917.532 547.608 935.253 585.875 940.759 589.084C942.151 592.935 945.556 616.024 946.234 620.518C930.746 584.209 899.101 536.391 873.573 506.045C868.536 500.149 863.238 494.48 857.695 489.057C845.703 477.194 845.538 477.37 838.384 462.051C835.397 455.714 832.284 449.438 829.049 443.224C822.093 429.962 813.322 417.734 804.748 405.483Z"/><path d="M665.531 279.193C667.288 288.104 667.944 297.369 669.593 306.009C672.422 320.832 675.356 336.637 678.81 351.294C702.116 449.381 743.254 542.349 800.173 625.563C809.372 639.228 818.733 651.569 828.415 664.785C823.636 661.298 809.384 642.224 804.913 636.286C754.932 569.087 716.5 494.028 691.196 414.194C684.002 391.163 678.734 368.121 673.607 344.592C671.903 336.772 670.648 324.54 668.812 317.615L668.59 316.802C667.17 304.685 665.51 291.343 665.531 279.193Z"/><path fill="#3E3133" d="M663.766 374.475C664.587 381.109 665.266 388.33 666.244 394.859L665.3 395.606C664.345 389.539 663.918 383.886 663.406 377.776L663.766 374.475Z"/><path fill="#766A6F" d="M663.406 377.776C662.761 374.805 662.51 370.898 662.354 367.863L662.8 367.308L662.458 366.71L662.379 367.883L662.973 368.042L663.766 374.475L663.406 377.776Z"/><path fill="#FBE8D5" d="M186.632 186.423C218.216 186.7 259.641 198.061 287.824 212.078C300.746 236.855 309.664 266.314 316.174 293.299C332.948 362.822 339.173 435.444 338.56 506.862C338.419 523.324 338.894 542.998 337.752 559.383C336.973 583.62 335.612 607.834 333.67 632.005C331.611 656.287 329.566 682.248 321.731 705.383C315.65 682.204 304.578 654.518 282.91 641.948C277.193 638.667 270.993 636.311 264.539 634.968C254.148 632.764 245.773 632.792 235.588 632.048C210.563 630.22 174.715 631.325 150.912 625.553C146.747 625.063 142.654 624.086 138.717 622.641C116.319 614.191 119.256 598.379 120.843 578.77C121.806 566.874 123.224 554.37 121.383 542.525C120.057 533.994 113.92 528.416 110.787 520.888C112.5 511.667 113.826 508.854 118.399 500.525C136.214 499.427 167.614 496.186 182.975 487.646C179.68 488.476 177.027 489.102 173.682 489.686C158.807 493.494 134.657 495.752 119.133 497.486C111.795 492.424 105.183 486.814 100.561 479.114C94.9258 466.309 115.982 456.625 109.193 440.552C98.8199 429.496 91.59 426.873 83.5269 411.794C80.598 406.236 77.3465 397.963 78.4458 391.329C78.8221 389.058 82.6295 386.966 84.6604 385.984C108.8 374.319 132.127 364.084 148.039 341.281C154.693 331.746 157.437 327.096 161.594 316.031C167.631 299.963 155.009 289.021 154.869 273.994C154.588 243.945 172.655 211.335 186.632 186.423Z"/><path fill="#D9A2A1" d="M150.912 625.553C154.863 624.454 163.682 623.753 168.141 623.185C177.969 621.935 189.34 620.677 199.012 618.721C239.645 610.506 306.583 587.001 337.752 559.383C336.973 583.62 335.612 607.834 333.67 632.005C331.611 656.287 329.566 682.248 321.731 705.383C315.65 682.204 304.578 654.518 282.91 641.948C277.193 638.667 270.993 636.311 264.539 634.968C254.148 632.764 245.773 632.792 235.588 632.048C210.563 630.22 174.715 631.325 150.912 625.553Z"/><path fill="#D9A2A1" d="M83.5269 411.794C92.4353 403.073 95.3327 404.68 106.725 409.062C114.051 411.88 125.624 416.836 130.587 422.693C142.745 437.039 119.265 442.16 109.193 440.552C98.8199 429.496 91.59 426.873 83.5269 411.794Z"/><path d="M103.687 418.147C109.287 418.043 122.487 421.796 125.772 426.509C124.008 426.245 106.032 419.228 103.687 418.147Z"/><path fill="#D9A2A1" d="M100.561 479.114C117.229 483.031 134.67 485.163 151.633 487.434C158.33 488.331 167.474 488.643 173.682 489.686C158.807 493.494 134.657 495.752 119.133 497.486C111.795 492.424 105.183 486.814 100.561 479.114Z"/><path d="M222.092 281.563C239.203 279.965 252.933 304.758 265.455 314.865C273.416 321.291 272.905 320.868 282.152 325.544L281.972 326.018C275.238 326.368 271.529 323.893 265.737 320.841C272.093 327.141 278.355 329.711 284.518 335.599C281.157 334.17 278.833 332.915 275.621 331.153C277.217 332.982 277.676 333.469 278.871 335.535C277.923 336.894 276.867 334.554 274.505 336.42C254.676 352.078 224.396 374.968 197.993 363.923C200.651 363.586 204.468 363.921 207.249 363.945C229.036 364.133 245.603 353.978 260.762 339.452C260.544 334.015 260.407 330.431 257.601 325.609C252.106 316.164 244.332 308.785 235.787 302.228C235.593 302.554 236.511 315.692 236.768 317.301C239.53 334.595 215.456 378.818 204.097 341.875C204.305 348.927 205.441 353.873 205.757 360.335L205.47 360.626C202.015 351.589 202.998 344.741 203.601 335.454C204.446 322.435 205.915 313.972 212.288 302.599C206.885 305.741 204.428 308.474 201.169 313.601C202.456 308.345 202.906 307.129 206.772 303.318C204.24 303.137 200.631 303.194 198.786 301.508L199.141 300.648C202.045 299.064 208.526 297.58 211.957 296.636C200.516 295.809 198.314 290.391 195.507 280.199C200.714 285.516 198.927 287.162 207.128 291.34C210.377 291.24 215.515 290.649 218.81 290.232C230.496 288.753 239.45 296.009 248.045 303.264C233.724 285.323 229.835 282.635 207.711 287.744C210.993 284.822 217.922 282.691 222.092 281.563Z"/><path fill="#9ACD81" d="M224.573 299.169C229.481 299.549 232.266 301.241 233.31 306.576C236.034 320.501 231.583 348.311 215.638 352.777C199.461 348.092 206.775 316.503 213.288 306.257C216.213 301.655 219.4 299.905 224.573 299.169Z"/><defs><linearGradient id="gradient_2" gradientUnits="userSpaceOnUse" x1="213.5468" y1="330.78574" x2="223.25562" y2="326.98718"><stop offset="0" stop-color="#077F23"/><stop offset="1" stop-color="#09992E"/></linearGradient></defs><path fill="url(#gradient_2)" d="M213.208 317.487C214.028 313.406 215.077 307.318 220.043 307.047C227.843 310.43 224.609 327.194 221.01 333.016C219.48 335.071 218.089 336.882 215.48 337.35C209.317 335.212 211.934 322.434 213.208 317.487Z"/><path d="M213.208 317.487C214.028 313.406 215.077 307.318 220.043 307.047C227.843 310.43 224.609 327.194 221.01 333.016L220.372 332.36C221.535 330.01 224.061 323.25 222.997 320.826L222.159 320.635C219.788 321.893 217.395 324.81 215.47 326.853L214.832 326.79C216.07 323.839 217.214 322.192 216.725 319.2L214.722 317.65L214.641 316.995L214.125 317.72L213.208 317.487Z"/><path fill="#FFFEFE" d="M214.641 316.995C215.341 313.71 215.438 309.88 219.583 310.002C224.203 312.76 223.077 318.384 216.725 319.2L214.722 317.65L214.641 316.995Z"/><path fill="#002B00" d="M213.208 317.487L214.125 317.72L214.641 316.995L214.722 317.65L216.725 319.2C217.214 322.192 216.07 323.839 214.832 326.79C214.078 328.608 214.397 328.798 213.082 329.355C213.112 331.919 213.02 333.843 214.905 335.688C217.712 336.373 218.916 334.558 220.372 332.36L221.01 333.016C219.48 335.071 218.089 336.882 215.48 337.35C209.317 335.212 211.934 322.434 213.208 317.487Z"/><path fill="#9ACD81" d="M214.722 317.65L216.725 319.2C217.214 322.192 216.07 323.839 214.832 326.79C214.078 328.608 214.397 328.798 213.082 329.355C213.133 325.591 212.926 320.921 214.722 317.65Z"/><path d="M214.738 250.209C240.604 249.23 269.672 262.974 288.307 280.601C277.204 274.93 269.348 271.324 257.142 268.31C236.371 263.6 211.462 262.091 190.907 268.845C187.871 269.842 184.878 270.861 181.817 271.798L181.211 270.836C180.672 253.547 201.726 251.315 214.738 250.209Z"/><path fill="#DBD5D1" d="M212.071 254.193C227.207 252.259 254.531 260.568 267.17 268.622C256.237 264.682 250.414 263.21 238.621 261.698C223.523 258.686 200.294 261.66 185.554 266.671L185.022 266.329C184.494 257.257 206.036 254.845 212.071 254.193Z"/><path fill="#813F51" d="M318.83 42.0133C338.021 42.0353 375.807 67.3437 391.25 78.5363C446.196 118.128 492.57 168.42 527.586 226.39C558.601 277.64 579.916 334.362 608.379 386.874C613.186 395.743 632.635 431.276 638.328 436.517C638.631 449.387 640.737 468.799 642.202 481.426C644.397 500.33 647.236 521.836 651.241 540.332C647.16 534.127 641.517 527.614 636.739 521.821C628.225 511.472 619.594 501.219 610.846 491.066L546.118 413.953C543.562 410.922 529.441 396.132 528.848 394.878C522.893 382.294 521.538 375.523 511.249 364.504C503.22 356.592 497.915 356.365 491.875 350.811C484.964 344.457 478.333 336.55 470.696 329.919C403.529 271.797 327.945 215.962 241.764 190.529C228.91 186.735 189.917 178.903 178.852 185.211L178.868 185.862C180.003 186.044 181.045 186.214 182.194 186.306L182.966 186.365C182.833 187.435 175.576 198.48 174.297 200.576C166.516 187.399 169.489 179.812 179.095 169.377C211.783 160.447 260.574 171.482 292.344 181.56C301.671 184.518 316.159 190.829 325.17 192.165C330.254 192.919 336.137 191.762 341.091 190.625C368.21 184.397 394.932 164.48 409.48 140.854C413.497 134.33 416.722 125.725 414.623 117.99C411.52 106.548 369.103 79.4687 358.233 73.2642C341.17 63.5246 316.24 50.503 296.494 55.877C304.208 51.2262 310.601 46.4118 318.83 42.0133Z"/><path d="M470.527 219.934C474.74 223.004 512.335 286.557 517.592 295.33C552.833 354.179 591.307 411.03 632.838 465.621C627.449 462.218 615.164 445.555 610.682 440.132C570.712 391.766 537.629 339.121 505.902 285.008C498.084 271.766 490.528 258.37 483.239 244.83C479.259 237.501 473.76 227.531 470.527 219.934Z"/><path fill="#F7C6C2" d="M333.043 42.8917L333.555 42.7674C345.953 39.8828 371.184 38.4157 384.053 38.4632C469.977 39.0202 558.344 64.2796 631.741 108.869C665.589 129.432 711.991 167.493 721.471 207.494C707.551 198.072 696.046 190.597 678.678 191.94C668.329 182.628 657.342 184.98 646.207 191.033C637.494 176.545 617.559 164.335 601.883 159.067C605.831 161.746 609.962 163.98 613.982 166.554C626.274 174.42 634.999 181.237 644.953 191.939C644.215 192.547 643.485 193.166 642.763 193.794C624.809 209.457 618.452 228.771 616.899 251.701C616.715 252.543 616.24 255.621 615.691 255.891C612.42 257.499 604.818 258.835 601.886 259.866C594.999 262.287 561.52 270.191 558.101 273.201C511.609 177.505 433.661 83.489 333.043 42.8917Z"/><path fill="#F7C6C2" d="M291.383 213.526C305.918 219.122 326.642 230.764 339.856 239.025C389.836 270.271 445.65 309.065 486.218 352.002C469.392 353.383 458.407 356.04 443.932 365.363C444.861 351.486 445.236 332.999 443.517 319.33C441.613 328.529 441.661 341.151 440.668 350.797C434.814 407.689 429.411 464.81 414.509 520.216C407.527 546.178 397.631 570.87 387.565 595.679C372.146 632.539 343.006 686.02 319.445 718.126C320.885 711.729 323.383 706.356 325.381 700.232C332.333 678.93 334.871 656.531 337.144 634.327C338.482 621.256 339.56 607.83 340.262 594.658C346.347 480.548 344.742 362.98 308.572 253.444C304.117 239.951 297.634 226.275 291.383 213.526Z"/><path fill="#D9A2A1" d="M529.021 401.439C530.689 402.985 535.425 408.863 537.093 410.838L554.056 430.938L633.12 524.711C639.187 531.954 645.977 539.331 651.867 546.7C653.135 548.286 655.055 558.405 655.644 561.136C657.418 569.664 659.334 578.162 661.391 586.626C668.283 613.489 676.979 639.856 687.419 665.549C682.116 659.556 674.322 652.864 668.488 646.646C660.09 637.695 653.987 629.632 646.416 620.099C649.571 628.106 652.204 640.446 655.017 649.249C664.579 679.178 673.006 705.405 690.216 731.916C678.725 720.904 665.759 711.605 653.947 701.079C633.86 682.957 614.794 663.735 596.837 643.501C592.034 637.875 573.724 616.259 571.466 610.405C566.921 636.626 572.865 679.947 580.723 705.108C576.352 699.572 571.418 694.461 566.684 689.231C542.121 662.098 518.267 633.908 498.81 602.824C492.365 592.528 486.997 581.77 481.188 571.127C482.433 564.672 484.675 557.235 486.467 550.798C473.947 569.656 471.48 603.751 471.427 626.12C457.763 595.561 447.804 555.399 448.047 521.833C496.448 492.788 538.909 466.125 529.021 401.439Z"/><path fill="#B3515F" d="M273.347 777.523C284.634 764.575 299.926 752.479 313.351 741.824C366.926 699.307 432.494 668.871 499.598 655.664C509.106 653.793 518.872 652.792 528.465 651.315C535.603 660.117 542.849 668.832 550.2 677.458C551.527 683.364 555.392 689.496 557.331 695.408C561.413 707.854 563.363 721.51 562.904 734.605C562.703 740.325 562.186 749.829 560.702 755.355C559.814 756.179 560.135 756.013 559.078 756.515C549.908 756.243 528.826 758.58 519.699 759.546C438.506 768.137 359.536 796.979 284.207 827.727C277.334 811.442 275.27 794.88 273.347 777.523Z"/><path fill="#DBD5D1" d="M305.442 56.5637C307.077 56.3915 313.919 58.2322 316.033 58.838C342.431 66.4026 369.551 82.2647 391.427 98.6462C397.147 104.171 411.717 111.951 412.197 120.678C412.743 130.595 403.163 143.847 396.909 150.783C380.813 168.635 355.395 186.548 330.719 188.36C322.68 188.951 304.857 179.93 296.215 178.273C260.648 167.006 233.21 161.361 195.881 163.663C190.969 164.147 185.902 164.856 180.992 165.474C189.088 155.231 197.333 142.978 205.186 133.553C206.813 135.82 208.757 138.558 211.533 139.181C229.952 143.314 253.821 132.465 260.087 113.914C262.446 106.927 261.881 98.3695 254.058 96.2117C246.194 94.0424 237.565 98.3259 230.896 102.006C235.569 97.7381 240.276 92.5416 245.484 89.0008C252.937 83.9329 267.473 79.3835 273.679 88.4801C275.218 90.4954 277.454 97.1919 280.503 97.1845C290.707 97.1598 304.359 91.4835 312.338 85.6321C302.078 87.4381 295.33 91.4915 281.972 92.768C276.939 77.7891 268.217 77.838 254.772 81.4756C268.456 70.935 288.915 61.3143 305.442 56.5637Z"/><path d="M328.497 167.52C332.388 167.173 335.849 167.807 337.836 171.619C338.713 173.326 338.852 175.317 338.222 177.13C337.175 180.095 335.215 181.127 332.546 182.366C321.248 182.909 319.133 172.572 328.497 167.52Z"/><path fill="#8E9199" d="M328.887 170.79C330.428 170.209 332.163 170.513 333.414 171.583C334.666 172.654 335.234 174.321 334.899 175.933C334.563 177.545 333.376 178.846 331.801 179.328C329.471 180.041 326.996 178.776 326.209 176.47C325.423 174.164 326.608 171.65 328.887 170.79Z"/><path d="M369.13 133.909C373.246 133.658 376.8 136.761 377.105 140.873C377.411 144.985 374.355 148.58 370.247 148.94C367.541 149.177 364.917 147.94 363.378 145.701C361.839 143.462 361.624 140.569 362.815 138.127C364.006 135.686 366.419 134.074 369.13 133.909Z"/><path fill="#8E9199" d="M369.135 137.345C371.342 137.128 373.326 138.694 373.627 140.891C373.928 143.087 372.438 145.129 370.254 145.513C368.766 145.775 367.254 145.202 366.313 144.02C365.371 142.838 365.152 141.236 365.74 139.844C366.329 138.452 367.632 137.493 369.135 137.345Z"/><path d="M385.687 103.647C389.461 102.403 393.532 104.438 394.802 108.203C396.073 111.969 394.067 116.054 390.311 117.351C386.517 118.661 382.382 116.63 381.099 112.827C379.815 109.024 381.875 104.904 385.687 103.647Z"/><path fill="#8E9199" d="M387.016 106.919C389.143 106.475 391.231 107.825 391.698 109.947C392.166 112.068 390.84 114.171 388.724 114.663C387.333 114.986 385.877 114.537 384.91 113.487C383.943 112.437 383.615 110.949 384.05 109.59C384.486 108.231 385.619 107.211 387.016 106.919Z"/><path fill="#FBE8D5" d="M418.989 519.984C429.469 527.096 434.221 527.178 445.652 522.821C445.698 526.03 445.649 529.239 445.506 532.445C445.884 563.652 452.837 594.429 465.91 622.769C467.093 625.394 471.565 636.005 473.509 637.241C475.011 635.967 474.731 623.582 474.982 620.507C477.452 624.634 477.967 626.266 482.064 629.616C485.922 632.77 492.418 635.202 495.474 638.717C488.087 640.3 478.746 641.964 471.636 643.896C442.633 651.776 415.48 662.433 388.546 675.663C376.869 681.399 366.925 687.677 355.984 693.331C355.391 693.94 348.446 698.563 347.393 699.258C340.65 703.707 334.213 707.961 327.708 712.765C365.192 659.948 401.772 581.999 418.989 519.984Z"/><path fill="#D9A2A1" d="M418.989 519.984C429.469 527.096 434.221 527.178 445.652 522.821C445.698 526.03 445.649 529.239 445.506 532.445C442.632 536.577 440.448 541.421 438.121 545.884C431.965 557.697 426.358 569.792 420.595 581.8C408.391 607.231 395.51 632.179 380.374 656.011C377.02 661.292 356.105 691.601 355.984 693.331C355.391 693.94 348.446 698.563 347.393 699.258C340.65 703.707 334.213 707.961 327.708 712.765C365.192 659.948 401.772 581.999 418.989 519.984Z"/><path fill="#FBE8D5" d="M443.169 371.175C453.864 363.07 475.063 354.472 488.183 357.193C522.196 364.503 528.714 405.068 524.207 434.026C520.037 460.815 505.736 479.216 483.199 493.578C468.244 503.109 435.463 534.063 420.656 514.275C422.647 504.514 424.844 494.796 427.246 485.128C427.808 484.985 428.408 484.626 428.957 484.352L428.698 483.411C431.398 479.009 446.789 478.884 451.763 478.583C452.68 477.407 455.362 475.472 456.689 474.402C463.418 468.972 465.592 465.927 468.761 457.996C472.901 439.745 463.747 416.259 450.979 403.161C454.368 399.319 458.535 394.876 462.575 391.717C476.098 399.235 481.2 404.771 489.892 417.873C490.911 419.41 492.791 422.823 494.495 422.561L494.668 420.726L495.445 420.236L495.932 419.921C507.586 413.331 504.816 375.292 488.205 375.619C467.604 376.025 449.28 397.649 438.62 412.798C439.912 398.9 441.428 385.024 443.169 371.175Z"/><path d="M493.193 436.072C495.352 445.263 491.739 455.631 486.875 463.355C481.245 472.297 473.25 478.934 462.801 481.234C451.137 483.802 440.741 480.987 428.957 484.352L428.698 483.411C431.398 479.009 446.789 478.884 451.763 478.583C477.97 478.522 489.337 459.707 493.193 436.072Z"/><path fill="#D9A2A1" d="M558.101 273.201C561.52 270.191 594.999 262.287 601.886 259.866C604.818 258.835 612.42 257.499 615.691 255.891C616.24 255.621 616.715 252.543 616.899 251.701C617.13 275.11 621.757 298.025 637.106 316.628C635.345 357.627 635.134 390.319 637.861 431.234C634.854 423.819 629.57 415.035 625.564 407.955C619.428 397.354 613.527 386.619 607.866 375.757C590.705 342.656 574.354 307.029 558.101 273.201Z"/><path fill="#813F51" d="M574.364 652.153C586.29 654.881 594.765 657.084 606.338 660.676C608.445 662.944 617.436 671.918 618.15 673.729C620.737 680.292 622.715 691.158 624.619 698.238C630.361 719.595 635.062 741.869 640.912 763.108C618.028 757.743 582.447 754.125 559.078 756.515C560.135 756.013 559.814 756.179 560.702 755.355C562.186 749.829 562.703 740.325 562.904 734.605C563.363 721.51 561.413 707.854 557.331 695.408C555.392 689.496 551.527 683.364 550.2 677.458C562.172 689.58 577.403 706.45 588.222 719.484C579.964 697.87 577.762 674.614 574.364 652.153Z"/><path fill="#6A3244" d="M661.419 190.238C667.802 189.821 670.405 189.831 676.178 192.705C643.917 206.374 640.725 279.577 637.551 310.256C627.395 292.708 622.448 280.39 621.463 259.393C621.305 256.023 621.263 249.549 621.96 246.374C622.681 225.802 638.492 193.096 661.419 190.238Z"/><path fill="#813F51" d="M621.96 246.374C622.681 225.802 638.492 193.096 661.419 190.238L663.17 190.806C663.521 193.352 659.282 198.362 657.68 200.705C654.809 204.908 652.16 209.257 649.742 213.735C643.921 224.73 641.05 235.408 637.615 247.236C633.6 248.371 626.353 250.414 622.368 250.721C621.75 249.288 621.936 247.96 621.96 246.374Z"/><path fill="#FBE8D5" d="M518.151 639.19L518.655 639.251C520.987 641.537 523.681 645.195 525.765 647.858C437.306 655.418 339.657 706.34 277.112 768.259L273.152 772.719L272.673 766.519C273.015 766.019 273.372 765.53 273.744 765.052C280.84 755.885 299.465 739.807 308.35 732.503C368.376 682.702 440.969 650.415 518.151 639.19Z"/><path fill="#D9A2A1" d="M448.618 405.384C457.369 417.732 463.426 428.641 466.552 443.657C467.44 447.918 467.454 454.216 468.761 457.996C465.592 465.927 463.418 468.972 456.689 474.402C455.362 475.472 452.68 477.407 451.763 478.583C446.789 478.884 431.398 479.009 428.698 483.411L428.957 484.352C428.408 484.626 427.808 484.985 427.246 485.128C431.679 463.186 435.19 441.068 437.769 418.833C443.47 426.429 441.606 434.553 443.997 442.189L444.623 442.222C449.379 435.934 445.665 420.485 440.702 414.79C443.303 411.937 446.116 408.387 448.618 405.384Z"/><path fill="#D9A2A1" d="M481.02 572.497C483.619 589.471 506.03 621.954 515.874 635.891C508.854 636.341 502.396 637.552 495.474 638.717C492.418 635.202 485.922 632.77 482.064 629.616C477.967 626.266 477.452 624.634 474.982 620.507C475.801 604.376 477.82 588.328 481.02 572.497Z"/><path fill="#DBD5D1" d="M224.963 110.317C227.496 107.755 233.935 103.834 237.34 102.481C264.767 91.5756 257.826 117.783 243.543 127.741C232.551 135.404 219.032 139.174 207.094 131.799C209.064 127.348 213.654 119.778 217.211 116.599L217.913 116.526C218.636 117.796 218.901 118.28 219.162 119.703C220.753 128.382 236.378 124.079 238.502 118.111C240.875 111.442 238.004 109.376 231.9 110.578C229.084 110.164 228.109 111.238 224.963 110.317Z"/><path fill="#D9A2A1" d="M486.604 380.166C503.34 381.506 501.11 416.077 494.085 419.451C492.996 418.673 489.386 412.22 488.422 410.599C481.543 400.649 476.475 395.072 465.753 389.604C472.059 385.091 478.84 381.137 486.604 380.166Z"/><path fill="#FBE8D5" d="M573.921 640.22C580.366 641.939 586.776 643.789 593.146 645.769L601.517 655.119C592.684 652.147 583.574 649.078 574.291 648.123L573.921 640.22Z"/><path fill="#FBE8D5" d="M573.018 617.863C574.065 619.308 575.69 622.672 577.034 624.647C580.685 630.011 584.485 635.043 588.373 640.233C583.709 638.912 578.306 636.925 573.628 636.236C573.453 629.949 572.932 624.257 573.018 617.863Z"/><path fill="#DBD5D1" d="M231.9 110.578C232.132 112.728 234.493 113.01 234.551 115.452C234.721 122.569 221.643 121.689 222.09 115.082C222.209 113.31 223.773 111.497 224.963 110.317C228.109 111.238 229.084 110.164 231.9 110.578Z"/></svg>